<?xml version="1.0" standalone="no"?>
<!DOCTYPE svg PUBLIC "-//W3C//DTD SVG 20010904//EN"
 "http://www.w3.org/TR/2001/REC-SVG-20010904/DTD/svg10.dtd">
<svg version="1.0" xmlns="http://www.w3.org/2000/svg"
 width="2590.000000pt" height="1268.000000pt" viewBox="0 0 2590.000000 1268.000000"
 preserveAspectRatio="xMidYMid meet">

<g transform="translate(0.000000,1268.000000) scale(0.100000,-0.100000)"
fill="#000000" stroke="none">
<path d="M7133 9560 c-188 -20 -364 -69 -529 -150 -436 -212 -737 -598 -830
-1065 -26 -129 -26 -432 0 -570 92 -494 434 -917 899 -1115 168 -71 345 -108
532 -113 83 -2 106 1 128 16 87 56 89 196 4 251 -15 11 -68 19 -158 26 -220
16 -387 66 -542 164 -294 185 -504 475 -567 786 -69 337 -12 662 163 925 162
244 491 501 695 544 66 14 412 14 507 1 251 -36 527 -176 703 -358 113 -116
194 -247 256 -414 31 -83 76 -248 76 -279 0 -6 -231 -9 -640 -9 -450 0 -646
-3 -661 -11 -49 -26 -66 -156 -29 -217 27 -44 66 -58 185 -67 384 -28 700
-200 928 -506 l27 -36 -74 -86 c-75 -85 -139 -141 -295 -259 -102 -76 -128
-116 -111 -176 6 -25 25 -53 50 -76 65 -58 126 -49 265 39 122 77 391 373 455
502 21 42 22 51 11 91 -22 85 -147 248 -310 405 l-111 107 250 0 c293 0 309 4
340 72 46 104 32 273 -41 492 -98 298 -274 568 -482 743 -180 151 -325 231
-513 283 -205 56 -412 78 -581 60z"/>
<path d="M10645 9563 c-419 -25 -758 -184 -1046 -491 -178 -190 -311 -449
-364 -706 -21 -107 -36 -304 -25 -352 22 -98 156 -132 244 -61 26 21 29 31 38
112 21 213 32 275 60 365 99 311 316 559 635 724 148 77 331 117 533 117 381
0 696 -153 951 -462 146 -176 217 -296 244 -411 21 -89 20 -422 -1 -542 -67
-383 -305 -713 -632 -877 -79 -40 -251 -101 -337 -119 -27 -6 -58 -13 -67 -16
-17 -5 -18 29 -18 616 0 507 -3 627 -14 654 -34 81 -147 108 -220 52 -21 -15
-41 -39 -47 -53 -5 -14 -9 -321 -9 -747 l0 -723 23 -34 c99 -146 555 -54 957
194 264 163 512 475 594 747 58 193 92 429 81 570 -9 115 -49 318 -82 410 -94
268 -253 507 -443 668 -240 202 -481 313 -765 351 -95 12 -221 19 -290 14z"/>
<path d="M14095 9563 c-230 -12 -412 -61 -619 -165 -412 -207 -726 -633 -802
-1087 -22 -128 -22 -384 0 -512 31 -186 110 -390 212 -546 237 -365 583 -602
996 -684 158 -31 425 -28 594 6 168 35 350 111 506 212 217 142 419 367 531
589 111 221 157 420 157 680 0 517 -241 963 -685 1264 -244 165 -589 260 -890
243z m280 -308 c204 -37 352 -102 521 -227 364 -272 543 -721 469 -1178 -49
-300 -220 -582 -464 -766 -226 -169 -458 -246 -741 -245 -324 0 -597 108 -829
327 -151 142 -260 312 -324 504 -42 126 -59 235 -59 385 0 264 58 454 210 690
54 83 210 241 304 308 136 96 316 172 475 201 105 19 337 20 438 1z"/>
<path d="M20933 9559 c-351 -34 -693 -193 -943 -439 -243 -239 -389 -535 -431
-874 -16 -134 -6 -382 21 -508 122 -576 592 -1046 1163 -1162 114 -24 312 -38
357 -26 87 23 129 137 80 217 -33 54 -54 62 -202 72 -215 16 -383 67 -546 166
-279 170 -499 474 -563 778 -26 123 -35 340 -20 447 38 256 159 497 344 682
180 180 391 317 535 347 82 17 421 14 533 -5 274 -47 524 -183 705 -385 134
-149 221 -321 279 -548 14 -55 25 -104 25 -110 0 -8 -189 -11 -646 -11 -490 0
-650 -2 -661 -11 -46 -39 -59 -158 -23 -217 27 -44 66 -58 180 -66 189 -14
317 -48 485 -131 164 -81 271 -165 396 -314 l78 -94 -21 -30 c-47 -66 -208
-217 -306 -286 -122 -86 -166 -139 -158 -190 6 -42 42 -94 77 -115 90 -53 254
36 453 245 174 183 273 332 262 393 -15 81 -156 266 -321 424 l-107 102 252 0
c276 0 300 4 332 58 9 15 22 58 29 94 10 56 9 83 -5 179 -47 308 -233 676
-451 894 -129 129 -311 256 -448 313 -106 45 -294 91 -437 107 -134 16 -170
17 -297 4z"/>
<path d="M3537 9449 c-461 -81 -879 -403 -1083 -833 -115 -244 -170 -543 -145
-789 42 -402 209 -719 538 -1019 48 -44 106 -93 130 -109 88 -61 188 -77 237
-38 32 25 66 89 66 122 0 40 -53 100 -167 189 -115 91 -269 244 -320 318 -45
67 -97 174 -126 265 -24 71 -67 238 -67 258 0 4 547 7 1215 7 668 0 1215 -3
1215 -6 0 -3 -11 -50 -25 -105 -73 -289 -177 -451 -435 -680 -195 -173 -229
-219 -210 -288 15 -56 69 -101 120 -101 93 0 211 72 363 223 156 154 250 283
341 464 115 230 144 381 133 693 -10 281 -82 514 -229 744 -244 383 -632 638
-1061 695 -124 17 -366 12 -490 -10z m490 -283 c363 -64 699 -313 864 -638 62
-123 93 -213 133 -390 l6 -28 -1215 0 c-668 0 -1215 3 -1215 8 0 4 13 57 29
117 69 262 179 458 344 611 168 156 414 279 627 314 41 6 82 13 90 15 47 9
267 3 337 -9z"/>
<path d="M16585 9150 c-44 -22 -147 -135 -238 -262 -110 -154 -180 -332 -224
-568 -27 -145 -24 -413 5 -545 76 -342 217 -595 465 -831 250 -239 546 -369
899 -393 344 -24 652 49 913 217 207 133 367 294 493 498 122 196 166 317 201
547 73 475 -55 907 -370 1256 -59 64 -116 101 -157 101 -32 0 -98 -38 -117
-67 -9 -12 -18 -42 -21 -66 -8 -55 6 -83 84 -169 134 -148 207 -275 255 -443
100 -348 63 -679 -110 -980 -153 -268 -373 -449 -667 -551 -212 -73 -544 -74
-766 -2 -131 42 -276 123 -399 223 -123 99 -235 243 -318 410 -65 130 -84 196
-109 370 -50 360 55 695 306 980 34 39 66 80 71 93 26 67 -7 149 -74 181 -54
26 -71 26 -122 1z"/>
<path d="M4042 5319 c-77 -22 -133 -113 -135 -219 -4 -164 74 -259 213 -260
83 0 123 15 167 63 91 98 82 298 -17 380 -52 44 -148 59 -228 36z m163 -112
c58 -58 60 -178 3 -242 -26 -31 -36 -35 -77 -35 -83 0 -121 48 -121 150 0 106
41 159 124 160 30 0 45 -7 71 -33z"/>
<path d="M2665 5310 c-3 -5 -39 -103 -79 -217 -41 -114 -77 -216 -81 -225 -6
-16 0 -18 48 -18 l55 0 17 50 17 51 81 -3 81 -3 15 -47 15 -48 53 0 c29 0 53
3 53 8 0 4 -36 108 -80 231 -44 124 -80 226 -80 228 0 8 -110 2 -115 -7z m105
-272 c0 -5 -22 -8 -50 -8 -27 0 -50 4 -50 8 0 8 29 99 46 142 5 12 53 -117 54
-142z"/>
<path d="M3000 5086 l0 -236 50 0 50 0 0 90 0 90 63 0 c86 0 96 -9 105 -100
l7 -75 58 -3 c51 -3 73 7 48 22 -4 3 -11 40 -13 81 -4 61 -9 80 -28 100 -21
22 -21 25 -6 31 42 16 58 100 31 158 -28 58 -63 70 -222 74 l-143 4 0 -236z
m260 124 c23 -23 25 -49 6 -75 -11 -16 -30 -20 -90 -23 l-76 -4 0 61 0 61 70
0 c57 0 74 -4 90 -20z"/>
<path d="M3460 5086 l0 -236 113 0 c133 0 170 9 214 52 46 45 66 112 61 206
-5 95 -27 145 -81 180 -37 25 -49 27 -173 30 l-134 4 0 -236z m235 134 c69
-26 75 -207 8 -260 -19 -15 -40 -20 -84 -20 l-59 0 0 145 0 145 54 0 c30 0 66
-4 81 -10z"/>
<path d="M4420 5143 c0 -158 2 -181 21 -219 53 -111 273 -114 331 -4 15 30 18
60 18 217 l0 183 -50 0 -50 0 0 -166 c0 -206 -7 -224 -86 -224 -73 0 -78 14
-82 216 l-3 174 -50 0 -49 0 0 -177z"/>
<path d="M4887 5313 c-4 -3 -7 -109 -7 -235 l0 -228 50 0 50 0 0 90 0 90 68 0
c85 0 102 -14 102 -86 0 -88 5 -94 67 -94 53 0 55 1 48 23 -4 12 -11 56 -15
96 -6 61 -11 78 -28 89 l-22 14 25 20 c77 60 36 199 -65 218 -53 11 -264 13
-273 3z m255 -100 c10 -9 18 -29 18 -44 0 -43 -34 -61 -112 -57 l-63 3 -3 58
-3 57 72 0 c53 0 77 -4 91 -17z"/>
<path d="M3454 4141 c-54 -25 -74 -55 -74 -112 0 -68 25 -94 113 -120 102 -29
123 -38 143 -60 40 -44 4 -123 -64 -135 -65 -12 -144 29 -154 81 -2 12 -13 21
-26 23 -18 3 -22 -1 -22 -23 0 -73 70 -124 170 -125 100 0 162 50 162 133 0
80 -26 105 -147 137 -87 23 -121 42 -128 72 -17 65 60 118 140 96 40 -10 72
-42 73 -70 0 -12 8 -18 25 -18 54 0 17 88 -50 120 -51 25 -108 25 -161 1z"/>
<path d="M4075 4144 c-89 -33 -129 -102 -130 -224 0 -87 11 -130 48 -184 55
-79 219 -89 294 -17 29 28 33 27 33 -9 0 -23 4 -30 20 -30 19 0 20 7 20 120
l0 120 -100 0 c-93 0 -100 -1 -100 -20 0 -18 7 -20 76 -20 l77 0 -6 -37 c-13
-77 -73 -128 -152 -128 -60 0 -95 20 -132 74 -44 64 -40 195 7 261 62 87 198
82 255 -8 13 -19 28 -31 43 -32 26 0 27 10 7 49 -43 85 -158 122 -260 85z"/>
<path d="M5176 4150 c-71 -22 -109 -99 -83 -162 20 -47 44 -62 145 -91 97 -28
122 -47 122 -93 0 -77 -85 -115 -173 -76 -35 16 -48 28 -58 56 -10 28 -19 36
-37 36 -21 0 -23 -3 -17 -32 15 -75 76 -118 168 -118 104 0 157 38 165 118 8
91 -19 116 -175 161 -99 29 -126 69 -83 124 26 33 79 49 122 36 39 -11 78 -46
78 -71 0 -13 7 -18 25 -18 17 0 25 5 25 18 0 25 -35 78 -64 97 -29 20 -120 28
-160 15z"/>
<path d="M7075 4148 c-84 -29 -134 -102 -143 -204 -13 -162 74 -274 213 -274
93 0 181 64 204 147 14 50 14 146 -1 194 -33 111 -163 176 -273 137z m125 -43
c34 -10 80 -53 96 -92 21 -48 17 -159 -6 -210 -45 -100 -180 -122 -258 -42
-39 40 -56 103 -49 179 8 93 53 152 128 170 34 8 43 7 89 -5z"/>
<path d="M2540 3915 l0 -235 103 0 c56 0 120 5 142 11 114 32 168 202 109 348
-33 83 -100 111 -264 111 l-90 0 0 -235z m244 171 c18 -8 43 -31 57 -52 20
-33 24 -52 24 -119 0 -138 -45 -183 -190 -193 l-85 -5 0 192 0 191 80 0 c46 0
95 -6 114 -14z"/>
<path d="M3000 3915 l0 -235 160 0 c153 0 160 1 160 20 0 19 -7 20 -135 20
l-135 0 0 90 0 90 120 0 c113 0 120 1 120 20 0 19 -7 20 -120 20 l-120 0 0 80
0 79 128 3 c123 3 127 4 130 26 l3 22 -155 0 -156 0 0 -235z"/>
<path d="M3800 3916 l0 -236 25 0 25 0 -2 233 -3 232 -22 3 -23 3 0 -235z"/>
<path d="M4460 3915 c0 -227 1 -235 20 -235 19 0 20 8 22 197 l3 196 130 -196
c116 -176 133 -197 158 -197 l27 0 0 235 0 235 -25 0 -25 0 0 -197 0 -198
-132 198 c-108 163 -135 197 -155 197 l-23 0 0 -235z"/>
<path d="M5450 4125 c0 -24 2 -25 70 -25 l70 0 0 -210 0 -210 25 0 25 0 0 210
0 209 73 3 c66 3 72 5 75 26 l3 22 -170 0 -171 0 0 -25z"/>
<path d="M5843 4134 c-3 -8 -4 -88 -1 -178 5 -193 16 -226 89 -264 57 -30 163
-28 206 4 62 46 68 71 68 269 0 179 0 180 -22 183 l-23 3 -1 -163 c0 -99 -5
-176 -12 -197 -33 -95 -186 -108 -234 -19 -14 27 -18 64 -21 206 -4 162 -5
172 -23 172 -11 0 -22 -7 -26 -16z"/>
<path d="M6310 3915 l0 -235 103 0 c56 0 120 5 142 11 114 32 168 202 109 348
-33 83 -100 111 -264 111 l-90 0 0 -235z m244 171 c18 -8 43 -31 57 -52 20
-33 24 -52 24 -119 0 -138 -45 -183 -190 -193 l-85 -5 0 192 0 191 80 0 c46 0
95 -6 114 -14z"/>
<path d="M6787 4143 c-4 -3 -7 -109 -7 -235 l0 -228 25 0 25 0 0 235 c0 221
-1 235 -18 235 -10 0 -22 -3 -25 -7z"/>
<path d="M2490 3050 l0 -50 2455 0 2455 0 0 50 0 50 -2455 0 -2455 0 0 -50z"/>
</g>
</svg>
